<svg xmlns="http://www.w3.org/2000/svg" xmlns:xlink="http://www.w3.org/1999/xlink" width="200" zoomAndPan="magnify" viewBox="0 0 150 30.000001" height="40" preserveAspectRatio="xMidYMid meet" version="1.0"><defs><g/></defs><g fill="#000000" fill-opacity="1"><g transform="translate(109.125907, 7.406605)"><g><path d="M 4.125 -1.5625 C 4.125 -1.039062 3.9375 -0.632812 3.5625 -0.34375 C 3.1875 -0.0625 2.675781 0.078125 2.03125 0.078125 C 1.332031 0.078125 0.796875 -0.0078125 0.421875 -0.1875 L 0.421875 -0.84375 C 0.660156 -0.75 0.921875 -0.671875 1.203125 -0.609375 C 1.492188 -0.546875 1.78125 -0.515625 2.0625 -0.515625 C 2.507812 -0.515625 2.847656 -0.597656 3.078125 -0.765625 C 3.316406 -0.941406 3.4375 -1.1875 3.4375 -1.5 C 3.4375 -1.707031 3.394531 -1.875 3.3125 -2 C 3.226562 -2.125 3.085938 -2.242188 2.890625 -2.359375 C 2.703125 -2.472656 2.414062 -2.597656 2.03125 -2.734375 C 1.476562 -2.929688 1.082031 -3.160156 0.84375 -3.421875 C 0.613281 -3.691406 0.5 -4.046875 0.5 -4.484375 C 0.5 -4.929688 0.671875 -5.289062 1.015625 -5.5625 C 1.359375 -5.832031 1.804688 -5.96875 2.359375 -5.96875 C 2.941406 -5.96875 3.476562 -5.859375 3.96875 -5.640625 L 3.765625 -5.046875 C 3.273438 -5.242188 2.800781 -5.34375 2.34375 -5.34375 C 1.988281 -5.34375 1.707031 -5.265625 1.5 -5.109375 C 1.289062 -4.960938 1.1875 -4.75 1.1875 -4.46875 C 1.1875 -4.269531 1.222656 -4.101562 1.296875 -3.96875 C 1.378906 -3.84375 1.507812 -3.722656 1.6875 -3.609375 C 1.863281 -3.503906 2.132812 -3.382812 2.5 -3.25 C 3.113281 -3.03125 3.535156 -2.796875 3.765625 -2.546875 C 4.003906 -2.296875 4.125 -1.96875 4.125 -1.5625 Z M 4.125 -1.5625 "/></g></g></g><g fill="#000000" fill-opacity="1"><g transform="translate(118.901209, 7.406605)"><g><path d="M 5.265625 0 L 4.59375 0 L 4.59375 -2.765625 L 1.484375 -2.765625 L 1.484375 0 L 0.8125 0 L 0.8125 -5.875 L 1.484375 -5.875 L 1.484375 -3.375 L 4.59375 -3.375 L 4.59375 -5.875 L 5.265625 -5.875 Z M 5.265625 0 "/></g></g></g><g fill="#000000" fill-opacity="1"><g transform="translate(130.231608, 7.406605)"><g><path d="M 5.90625 -2.953125 C 5.90625 -2.003906 5.664062 -1.257812 5.1875 -0.71875 C 4.71875 -0.1875 4.0625 0.078125 3.21875 0.078125 C 2.34375 0.078125 1.671875 -0.179688 1.203125 -0.703125 C 0.734375 -1.234375 0.5 -1.984375 0.5 -2.953125 C 0.5 -3.910156 0.734375 -4.648438 1.203125 -5.171875 C 1.679688 -5.703125 2.351562 -5.96875 3.21875 -5.96875 C 4.0625 -5.96875 4.71875 -5.695312 5.1875 -5.15625 C 5.664062 -4.625 5.90625 -3.890625 5.90625 -2.953125 Z M 1.21875 -2.953125 C 1.21875 -2.148438 1.390625 -1.539062 1.734375 -1.125 C 2.078125 -0.71875 2.570312 -0.515625 3.21875 -0.515625 C 3.863281 -0.515625 4.351562 -0.71875 4.6875 -1.125 C 5.019531 -1.539062 5.1875 -2.148438 5.1875 -2.953125 C 5.1875 -3.742188 5.019531 -4.34375 4.6875 -4.75 C 4.351562 -5.15625 3.863281 -5.359375 3.21875 -5.359375 C 2.570312 -5.359375 2.078125 -5.148438 1.734375 -4.734375 C 1.390625 -4.328125 1.21875 -3.734375 1.21875 -2.953125 Z M 1.21875 -2.953125 "/></g></g></g><g fill="#000000" fill-opacity="1"><g transform="translate(141.899547, 7.406605)"><g><path d="M 4.53125 -4.171875 C 4.53125 -3.566406 4.328125 -3.101562 3.921875 -2.78125 C 3.515625 -2.46875 2.9375 -2.3125 2.1875 -2.3125 L 1.484375 -2.3125 L 1.484375 0 L 0.8125 0 L 0.8125 -5.875 L 2.328125 -5.875 C 3.796875 -5.875 4.53125 -5.304688 4.53125 -4.171875 Z M 1.484375 -2.90625 L 2.109375 -2.90625 C 2.710938 -2.90625 3.148438 -3 3.421875 -3.1875 C 3.691406 -3.382812 3.828125 -3.703125 3.828125 -4.140625 C 3.828125 -4.523438 3.695312 -4.8125 3.4375 -5 C 3.1875 -5.1875 2.789062 -5.28125 2.25 -5.28125 L 1.484375 -5.28125 Z M 1.484375 -2.90625 "/></g></g></g><g fill="#ff5757" fill-opacity="1"><g transform="translate(4.956711, 27.022659)"><g><path d="M 14.25 -1.421875 C 14.289062 -1.285156 14.3125 -1.140625 14.3125 -0.984375 C 14.3125 -0.679688 14.207031 -0.429688 14 -0.234375 C 13.789062 -0.0351562 13.550781 0.0625 13.28125 0.0625 C 13.0625 0.0625 12.863281 0 12.6875 -0.125 C 12.519531 -0.257812 12.378906 -0.441406 12.265625 -0.671875 L 10.84375 -4.03125 L 3.765625 -4.03125 L 2.359375 -0.640625 C 2.285156 -0.410156 2.160156 -0.234375 1.984375 -0.109375 C 1.804688 0.00390625 1.613281 0.0625 1.40625 0.0625 C 1.082031 0.0625 0.832031 -0.0195312 0.65625 -0.1875 C 0.488281 -0.351562 0.40625 -0.582031 0.40625 -0.875 C 0.40625 -0.9375 0.421875 -1.054688 0.453125 -1.234375 L 6.3125 -15.40625 C 6.414062 -15.65625 6.5625 -15.84375 6.75 -15.96875 C 6.945312 -16.101562 7.164062 -16.15625 7.40625 -16.125 C 7.632812 -16.125 7.835938 -16.0625 8.015625 -15.9375 C 8.203125 -15.820312 8.335938 -15.644531 8.421875 -15.40625 Z M 4.640625 -6.125 L 9.984375 -6.125 L 7.296875 -12.546875 Z M 4.640625 -6.125 "/></g></g></g><g fill="#ff5757" fill-opacity="1"><g transform="translate(19.680043, 27.022659)"><g><path d="M 0.9375 -1.875 C 0.800781 -2.09375 0.734375 -2.300781 0.734375 -2.5 C 0.734375 -2.800781 0.894531 -3.0625 1.21875 -3.28125 C 1.363281 -3.382812 1.539062 -3.4375 1.75 -3.4375 C 2.019531 -3.4375 2.269531 -3.320312 2.5 -3.09375 C 2.957031 -2.570312 3.445312 -2.179688 3.96875 -1.921875 C 4.5 -1.660156 5.132812 -1.53125 5.875 -1.53125 C 6.457031 -1.550781 6.96875 -1.6875 7.40625 -1.9375 C 7.851562 -2.1875 8.078125 -2.597656 8.078125 -3.171875 C 8.078125 -3.679688 7.847656 -4.070312 7.390625 -4.34375 C 6.941406 -4.625 6.28125 -4.878906 5.40625 -5.109375 C 4.550781 -5.335938 3.84375 -5.578125 3.28125 -5.828125 C 2.71875 -6.085938 2.238281 -6.457031 1.84375 -6.9375 C 1.457031 -7.414062 1.265625 -8.046875 1.265625 -8.828125 C 1.265625 -9.515625 1.457031 -10.117188 1.84375 -10.640625 C 2.238281 -11.160156 2.757812 -11.566406 3.40625 -11.859375 C 4.050781 -12.148438 4.757812 -12.296875 5.53125 -12.296875 C 6.257812 -12.296875 6.988281 -12.15625 7.71875 -11.875 C 8.445312 -11.601562 9.039062 -11.1875 9.5 -10.625 C 9.675781 -10.40625 9.765625 -10.179688 9.765625 -9.953125 C 9.765625 -9.710938 9.644531 -9.476562 9.40625 -9.25 C 9.25 -9.101562 9.054688 -9.03125 8.828125 -9.03125 C 8.554688 -9.03125 8.335938 -9.125 8.171875 -9.3125 C 7.847656 -9.675781 7.453125 -9.957031 6.984375 -10.15625 C 6.515625 -10.351562 6 -10.453125 5.4375 -10.453125 C 4.851562 -10.453125 4.359375 -10.332031 3.953125 -10.09375 C 3.546875 -9.863281 3.34375 -9.46875 3.34375 -8.90625 C 3.363281 -8.363281 3.597656 -7.960938 4.046875 -7.703125 C 4.492188 -7.441406 5.1875 -7.191406 6.125 -6.953125 C 6.9375 -6.734375 7.609375 -6.5 8.140625 -6.25 C 8.679688 -6.007812 9.132812 -5.648438 9.5 -5.171875 C 9.863281 -4.691406 10.046875 -4.0625 10.046875 -3.28125 C 10.046875 -2.5625 9.835938 -1.9375 9.421875 -1.40625 C 9.015625 -0.882812 8.476562 -0.476562 7.8125 -0.1875 C 7.144531 0.09375 6.4375 0.234375 5.6875 0.234375 C 4.726562 0.234375 3.835938 0.0664062 3.015625 -0.265625 C 2.203125 -0.609375 1.507812 -1.144531 0.9375 -1.875 Z M 0.9375 -1.875 "/></g></g></g><g fill="#ff5757" fill-opacity="1"><g transform="translate(30.619339, 27.022659)"><g><path d="M 6.859375 -12.296875 C 8.066406 -12.296875 9.070312 -12.101562 9.875 -11.71875 C 10.675781 -11.332031 11.078125 -10.84375 11.078125 -10.25 C 11.078125 -9.988281 10.992188 -9.753906 10.828125 -9.546875 C 10.660156 -9.347656 10.445312 -9.25 10.1875 -9.25 C 9.988281 -9.25 9.832031 -9.273438 9.71875 -9.328125 C 9.601562 -9.390625 9.445312 -9.492188 9.25 -9.640625 C 9.15625 -9.722656 9.007812 -9.828125 8.8125 -9.953125 C 8.625 -10.046875 8.363281 -10.125 8.03125 -10.1875 C 7.695312 -10.25 7.390625 -10.28125 7.109375 -10.28125 C 6.316406 -10.28125 5.613281 -10.09375 5 -9.71875 C 4.382812 -9.351562 3.910156 -8.84375 3.578125 -8.1875 C 3.242188 -7.539062 3.078125 -6.820312 3.078125 -6.03125 C 3.078125 -5.21875 3.238281 -4.488281 3.5625 -3.84375 C 3.894531 -3.207031 4.359375 -2.707031 4.953125 -2.34375 C 5.546875 -1.976562 6.226562 -1.796875 7 -1.796875 C 7.789062 -1.796875 8.429688 -1.914062 8.921875 -2.15625 C 9.023438 -2.21875 9.171875 -2.316406 9.359375 -2.453125 C 9.515625 -2.578125 9.648438 -2.671875 9.765625 -2.734375 C 9.878906 -2.796875 10.019531 -2.828125 10.1875 -2.828125 C 10.488281 -2.828125 10.726562 -2.726562 10.90625 -2.53125 C 11.082031 -2.34375 11.171875 -2.097656 11.171875 -1.796875 C 11.171875 -1.472656 10.96875 -1.148438 10.5625 -0.828125 C 10.15625 -0.515625 9.609375 -0.257812 8.921875 -0.0625 C 8.242188 0.132812 7.519531 0.234375 6.75 0.234375 C 5.582031 0.234375 4.554688 -0.0351562 3.671875 -0.578125 C 2.785156 -1.128906 2.097656 -1.878906 1.609375 -2.828125 C 1.128906 -3.785156 0.890625 -4.851562 0.890625 -6.03125 C 0.890625 -7.207031 1.140625 -8.273438 1.640625 -9.234375 C 2.148438 -10.191406 2.851562 -10.941406 3.75 -11.484375 C 4.65625 -12.023438 5.691406 -12.296875 6.859375 -12.296875 Z M 6.859375 -12.296875 "/></g></g></g><g fill="#ff5757" fill-opacity="1"><g transform="translate(42.407179, 27.022659)"><g><path d="M 7.609375 -12.21875 C 10.304688 -12.21875 11.65625 -10.550781 11.65625 -7.21875 L 11.65625 -1.09375 C 11.65625 -0.789062 11.550781 -0.53125 11.34375 -0.3125 C 11.132812 -0.101562 10.867188 0 10.546875 0 C 10.242188 0 9.988281 -0.101562 9.78125 -0.3125 C 9.570312 -0.53125 9.46875 -0.789062 9.46875 -1.09375 L 9.46875 -7.21875 C 9.46875 -9.207031 8.628906 -10.203125 6.953125 -10.203125 C 6.046875 -10.203125 5.296875 -9.914062 4.703125 -9.34375 C 4.109375 -8.769531 3.8125 -8.0625 3.8125 -7.21875 L 3.8125 -1.09375 C 3.8125 -0.789062 3.707031 -0.53125 3.5 -0.3125 C 3.289062 -0.101562 3.023438 0 2.703125 0 C 2.378906 0 2.117188 -0.101562 1.921875 -0.3125 C 1.722656 -0.519531 1.625 -0.78125 1.625 -1.09375 L 1.625 -15.875 C 1.625 -16.175781 1.726562 -16.429688 1.9375 -16.640625 C 2.144531 -16.859375 2.398438 -16.96875 2.703125 -16.96875 C 3.023438 -16.96875 3.289062 -16.859375 3.5 -16.640625 C 3.707031 -16.429688 3.8125 -16.175781 3.8125 -15.875 L 3.8125 -10.0625 C 4.1875 -10.664062 4.71875 -11.175781 5.40625 -11.59375 C 6.101562 -12.007812 6.835938 -12.21875 7.609375 -12.21875 Z M 7.609375 -12.21875 "/></g></g></g><g fill="#ff5757" fill-opacity="1"><g transform="translate(55.685701, 27.022659)"><g><path d="M 11.375 -12.1875 C 11.695312 -12.1875 11.960938 -12.082031 12.171875 -11.875 C 12.378906 -11.664062 12.484375 -11.394531 12.484375 -11.0625 L 12.484375 -1.09375 C 12.484375 -0.789062 12.378906 -0.53125 12.171875 -0.3125 C 11.960938 -0.101562 11.695312 0 11.375 0 C 11.050781 0 10.789062 -0.101562 10.59375 -0.3125 C 10.394531 -0.519531 10.296875 -0.78125 10.296875 -1.09375 L 10.296875 -1.703125 C 9.898438 -1.160156 9.359375 -0.703125 8.671875 -0.328125 C 7.984375 0.046875 7.242188 0.234375 6.453125 0.234375 C 5.410156 0.234375 4.460938 -0.03125 3.609375 -0.5625 C 2.765625 -1.101562 2.097656 -1.851562 1.609375 -2.8125 C 1.128906 -3.769531 0.890625 -4.84375 0.890625 -6.03125 C 0.890625 -7.226562 1.128906 -8.300781 1.609375 -9.25 C 2.097656 -10.207031 2.757812 -10.953125 3.59375 -11.484375 C 4.4375 -12.023438 5.363281 -12.296875 6.375 -12.296875 C 7.1875 -12.296875 7.9375 -12.125 8.625 -11.78125 C 9.320312 -11.445312 9.878906 -11.019531 10.296875 -10.5 L 10.296875 -11.0625 C 10.296875 -11.375 10.394531 -11.640625 10.59375 -11.859375 C 10.789062 -12.078125 11.050781 -12.1875 11.375 -12.1875 Z M 6.703125 -1.796875 C 7.421875 -1.796875 8.054688 -1.976562 8.609375 -2.34375 C 9.171875 -2.707031 9.609375 -3.207031 9.921875 -3.84375 C 10.234375 -4.488281 10.390625 -5.21875 10.390625 -6.03125 C 10.390625 -6.820312 10.234375 -7.539062 9.921875 -8.1875 C 9.609375 -8.832031 9.171875 -9.34375 8.609375 -9.71875 C 8.054688 -10.09375 7.421875 -10.28125 6.703125 -10.28125 C 5.984375 -10.28125 5.34375 -10.09375 4.78125 -9.71875 C 4.21875 -9.351562 3.78125 -8.847656 3.46875 -8.203125 C 3.15625 -7.566406 3 -6.84375 3 -6.03125 C 3 -5.21875 3.15625 -4.488281 3.46875 -3.84375 C 3.78125 -3.207031 4.21875 -2.707031 4.78125 -2.34375 C 5.34375 -1.976562 5.984375 -1.796875 6.703125 -1.796875 Z M 6.703125 -1.796875 "/></g></g></g><g fill="#ff5757" fill-opacity="1"><g transform="translate(69.766895, 27.022659)"><g><path d="M 11.375 -16.96875 C 11.695312 -16.96875 11.960938 -16.863281 12.171875 -16.65625 C 12.378906 -16.457031 12.484375 -16.195312 12.484375 -15.875 L 12.484375 -1.09375 C 12.484375 -0.789062 12.378906 -0.53125 12.171875 -0.3125 C 11.960938 -0.101562 11.695312 0 11.375 0 C 11.050781 0 10.789062 -0.101562 10.59375 -0.3125 C 10.394531 -0.519531 10.296875 -0.78125 10.296875 -1.09375 L 10.296875 -1.75 C 9.910156 -1.195312 9.367188 -0.726562 8.671875 -0.34375 C 7.984375 0.0390625 7.242188 0.234375 6.453125 0.234375 C 5.410156 0.234375 4.46875 -0.03125 3.625 -0.5625 C 2.78125 -1.101562 2.113281 -1.851562 1.625 -2.8125 C 1.132812 -3.769531 0.890625 -4.84375 0.890625 -6.03125 C 0.890625 -7.226562 1.128906 -8.300781 1.609375 -9.25 C 2.097656 -10.207031 2.757812 -10.953125 3.59375 -11.484375 C 4.4375 -12.023438 5.363281 -12.296875 6.375 -12.296875 C 7.1875 -12.296875 7.9375 -12.125 8.625 -11.78125 C 9.3125 -11.445312 9.867188 -11.015625 10.296875 -10.484375 L 10.296875 -15.875 C 10.296875 -16.195312 10.394531 -16.457031 10.59375 -16.65625 C 10.789062 -16.863281 11.050781 -16.96875 11.375 -16.96875 Z M 6.703125 -1.796875 C 7.421875 -1.796875 8.054688 -1.976562 8.609375 -2.34375 C 9.171875 -2.707031 9.609375 -3.207031 9.921875 -3.84375 C 10.234375 -4.488281 10.390625 -5.21875 10.390625 -6.03125 C 10.390625 -6.820312 10.234375 -7.539062 9.921875 -8.1875 C 9.609375 -8.84375 9.171875 -9.351562 8.609375 -9.71875 C 8.054688 -10.09375 7.421875 -10.28125 6.703125 -10.28125 C 5.984375 -10.28125 5.34375 -10.09375 4.78125 -9.71875 C 4.21875 -9.351562 3.78125 -8.84375 3.46875 -8.1875 C 3.15625 -7.539062 3 -6.820312 3 -6.03125 C 3 -5.21875 3.15625 -4.488281 3.46875 -3.84375 C 3.78125 -3.207031 4.21875 -2.707031 4.78125 -2.34375 C 5.34375 -1.976562 5.984375 -1.796875 6.703125 -1.796875 Z M 6.703125 -1.796875 "/></g></g></g><g fill="#ff5757" fill-opacity="1"><g transform="translate(83.848089, 27.022659)"><g><path d="M 3.6875 -1.09375 C 3.6875 -0.789062 3.582031 -0.53125 3.375 -0.3125 C 3.175781 -0.101562 2.914062 0 2.59375 0 C 2.289062 0 2.035156 -0.101562 1.828125 -0.3125 C 1.617188 -0.53125 1.515625 -0.789062 1.515625 -1.09375 L 1.515625 -11.03125 C 1.515625 -11.332031 1.617188 -11.59375 1.828125 -11.8125 C 2.035156 -12.03125 2.289062 -12.140625 2.59375 -12.140625 C 2.914062 -12.140625 3.175781 -12.03125 3.375 -11.8125 C 3.582031 -11.59375 3.6875 -11.332031 3.6875 -11.03125 Z M 2.59375 -13.640625 C 2.15625 -13.640625 1.835938 -13.71875 1.640625 -13.875 C 1.453125 -14.039062 1.359375 -14.300781 1.359375 -14.65625 L 1.359375 -15.03125 C 1.359375 -15.394531 1.460938 -15.648438 1.671875 -15.796875 C 1.878906 -15.953125 2.195312 -16.03125 2.625 -16.03125 C 3.050781 -16.03125 3.359375 -15.945312 3.546875 -15.78125 C 3.742188 -15.625 3.84375 -15.375 3.84375 -15.03125 L 3.84375 -14.65625 C 3.84375 -14.289062 3.738281 -14.03125 3.53125 -13.875 C 3.332031 -13.71875 3.019531 -13.640625 2.59375 -13.640625 Z M 2.59375 -13.640625 "/></g></g></g><g fill="#ff5757" fill-opacity="1"><g transform="translate(89.054, 27.022659)"><g><path d="M 7.75 -12.296875 C 10.5 -12.296875 11.875 -10.644531 11.875 -7.34375 L 11.875 -1.09375 C 11.875 -0.789062 11.769531 -0.53125 11.5625 -0.3125 C 11.363281 -0.101562 11.101562 0 10.78125 0 C 10.476562 0 10.222656 -0.101562 10.015625 -0.3125 C 9.804688 -0.53125 9.703125 -0.789062 9.703125 -1.09375 L 9.703125 -7.3125 C 9.703125 -8.21875 9.492188 -8.9375 9.078125 -9.46875 C 8.671875 -10.007812 8 -10.28125 7.0625 -10.28125 C 6.445312 -10.28125 5.890625 -10.144531 5.390625 -9.875 C 4.898438 -9.601562 4.515625 -9.242188 4.234375 -8.796875 C 3.953125 -8.347656 3.8125 -7.851562 3.8125 -7.3125 L 3.8125 -1.09375 C 3.8125 -0.789062 3.707031 -0.53125 3.5 -0.3125 C 3.289062 -0.101562 3.023438 0 2.703125 0 C 2.378906 0 2.117188 -0.101562 1.921875 -0.3125 C 1.722656 -0.519531 1.625 -0.78125 1.625 -1.09375 L 1.625 -10.921875 C 1.625 -11.222656 1.726562 -11.476562 1.9375 -11.6875 C 2.144531 -11.90625 2.398438 -12.015625 2.703125 -12.015625 C 3.023438 -12.015625 3.289062 -11.90625 3.5 -11.6875 C 3.707031 -11.476562 3.8125 -11.222656 3.8125 -10.921875 L 3.8125 -10.109375 C 4.207031 -10.722656 4.757812 -11.238281 5.46875 -11.65625 C 6.175781 -12.082031 6.9375 -12.296875 7.75 -12.296875 Z M 7.75 -12.296875 "/></g></g></g><g fill="#ff5757" fill-opacity="1"><g transform="translate(102.561848, 27.022659)"><g><path d="M 7.609375 -12.21875 C 10.304688 -12.21875 11.65625 -10.550781 11.65625 -7.21875 L 11.65625 -1.09375 C 11.65625 -0.789062 11.550781 -0.53125 11.34375 -0.3125 C 11.132812 -0.101562 10.867188 0 10.546875 0 C 10.242188 0 9.988281 -0.101562 9.78125 -0.3125 C 9.570312 -0.53125 9.46875 -0.789062 9.46875 -1.09375 L 9.46875 -7.21875 C 9.46875 -9.207031 8.628906 -10.203125 6.953125 -10.203125 C 6.046875 -10.203125 5.296875 -9.914062 4.703125 -9.34375 C 4.109375 -8.769531 3.8125 -8.0625 3.8125 -7.21875 L 3.8125 -1.09375 C 3.8125 -0.789062 3.707031 -0.53125 3.5 -0.3125 C 3.289062 -0.101562 3.023438 0 2.703125 0 C 2.378906 0 2.117188 -0.101562 1.921875 -0.3125 C 1.722656 -0.519531 1.625 -0.78125 1.625 -1.09375 L 1.625 -15.875 C 1.625 -16.175781 1.726562 -16.429688 1.9375 -16.640625 C 2.144531 -16.859375 2.398438 -16.96875 2.703125 -16.96875 C 3.023438 -16.96875 3.289062 -16.859375 3.5 -16.640625 C 3.707031 -16.429688 3.8125 -16.175781 3.8125 -15.875 L 3.8125 -10.0625 C 4.1875 -10.664062 4.71875 -11.175781 5.40625 -11.59375 C 6.101562 -12.007812 6.835938 -12.21875 7.609375 -12.21875 Z M 7.609375 -12.21875 "/></g></g></g><g fill="#ff5757" fill-opacity="1"><g transform="translate(115.840369, 27.022659)"><g><path d="M 13 -6.015625 C 13 -4.816406 12.734375 -3.742188 12.203125 -2.796875 C 11.671875 -1.847656 10.941406 -1.101562 10.015625 -0.5625 C 9.085938 -0.03125 8.066406 0.234375 6.953125 0.234375 C 5.835938 0.234375 4.816406 -0.03125 3.890625 -0.5625 C 2.960938 -1.101562 2.226562 -1.847656 1.6875 -2.796875 C 1.15625 -3.742188 0.890625 -4.816406 0.890625 -6.015625 C 0.890625 -7.203125 1.15625 -8.273438 1.6875 -9.234375 C 2.226562 -10.203125 2.960938 -10.953125 3.890625 -11.484375 C 4.816406 -12.023438 5.835938 -12.296875 6.953125 -12.296875 C 8.066406 -12.296875 9.085938 -12.023438 10.015625 -11.484375 C 10.941406 -10.953125 11.671875 -10.203125 12.203125 -9.234375 C 12.734375 -8.273438 13 -7.203125 13 -6.015625 Z M 10.828125 -6.015625 C 10.828125 -6.835938 10.65625 -7.570312 10.3125 -8.21875 C 9.96875 -8.875 9.5 -9.378906 8.90625 -9.734375 C 8.320312 -10.097656 7.671875 -10.28125 6.953125 -10.28125 C 6.234375 -10.28125 5.578125 -10.097656 4.984375 -9.734375 C 4.398438 -9.378906 3.9375 -8.875 3.59375 -8.21875 C 3.25 -7.570312 3.078125 -6.835938 3.078125 -6.015625 C 3.078125 -5.203125 3.25 -4.472656 3.59375 -3.828125 C 3.9375 -3.191406 4.398438 -2.691406 4.984375 -2.328125 C 5.578125 -1.972656 6.234375 -1.796875 6.953125 -1.796875 C 7.671875 -1.796875 8.320312 -1.972656 8.90625 -2.328125 C 9.5 -2.691406 9.96875 -3.191406 10.3125 -3.828125 C 10.65625 -4.472656 10.828125 -5.203125 10.828125 -6.015625 Z M 10.828125 -6.015625 "/></g></g></g><g fill="#ff5757" fill-opacity="1"><g transform="translate(129.738093, 27.022659)"><g><path d="M 0.9375 -1.875 C 0.800781 -2.09375 0.734375 -2.300781 0.734375 -2.5 C 0.734375 -2.800781 0.894531 -3.0625 1.21875 -3.28125 C 1.363281 -3.382812 1.539062 -3.4375 1.75 -3.4375 C 2.019531 -3.4375 2.269531 -3.320312 2.5 -3.09375 C 2.957031 -2.570312 3.445312 -2.179688 3.96875 -1.921875 C 4.5 -1.660156 5.132812 -1.53125 5.875 -1.53125 C 6.457031 -1.550781 6.96875 -1.6875 7.40625 -1.9375 C 7.851562 -2.1875 8.078125 -2.597656 8.078125 -3.171875 C 8.078125 -3.679688 7.847656 -4.070312 7.390625 -4.34375 C 6.941406 -4.625 6.28125 -4.878906 5.40625 -5.109375 C 4.550781 -5.335938 3.84375 -5.578125 3.28125 -5.828125 C 2.71875 -6.085938 2.238281 -6.457031 1.84375 -6.9375 C 1.457031 -7.414062 1.265625 -8.046875 1.265625 -8.828125 C 1.265625 -9.515625 1.457031 -10.117188 1.84375 -10.640625 C 2.238281 -11.160156 2.757812 -11.566406 3.40625 -11.859375 C 4.050781 -12.148438 4.757812 -12.296875 5.53125 -12.296875 C 6.257812 -12.296875 6.988281 -12.15625 7.71875 -11.875 C 8.445312 -11.601562 9.039062 -11.1875 9.5 -10.625 C 9.675781 -10.40625 9.765625 -10.179688 9.765625 -9.953125 C 9.765625 -9.710938 9.644531 -9.476562 9.40625 -9.25 C 9.25 -9.101562 9.054688 -9.03125 8.828125 -9.03125 C 8.554688 -9.03125 8.335938 -9.125 8.171875 -9.3125 C 7.847656 -9.675781 7.453125 -9.957031 6.984375 -10.15625 C 6.515625 -10.351562 6 -10.453125 5.4375 -10.453125 C 4.851562 -10.453125 4.359375 -10.332031 3.953125 -10.09375 C 3.546875 -9.863281 3.34375 -9.46875 3.34375 -8.90625 C 3.363281 -8.363281 3.597656 -7.960938 4.046875 -7.703125 C 4.492188 -7.441406 5.1875 -7.191406 6.125 -6.953125 C 6.9375 -6.734375 7.609375 -6.5 8.140625 -6.25 C 8.679688 -6.007812 9.132812 -5.648438 9.5 -5.171875 C 9.863281 -4.691406 10.046875 -4.0625 10.046875 -3.28125 C 10.046875 -2.5625 9.835938 -1.9375 9.421875 -1.40625 C 9.015625 -0.882812 8.476562 -0.476562 7.8125 -0.1875 C 7.144531 0.09375 6.4375 0.234375 5.6875 0.234375 C 4.726562 0.234375 3.835938 0.0664062 3.015625 -0.265625 C 2.203125 -0.609375 1.507812 -1.144531 0.9375 -1.875 Z M 0.9375 -1.875 "/></g></g></g></svg>