<svg xmlns="http://www.w3.org/2000/svg" xmlns:xlink="http://www.w3.org/1999/xlink" width="200" zoomAndPan="magnify" viewBox="0 0 150 44.999999" height="60" preserveAspectRatio="xMidYMid meet" version="1.0"><defs><g/><clipPath id="04ee10fda0"><path d="M 19 6 L 39.75 6 L 39.75 33 L 19 33 Z M 19 6 " clip-rule="nonzero"/></clipPath><clipPath id="46e82f9bdd"><path d="M 25 4.5 L 33 4.5 L 33 9 L 25 9 Z M 25 4.5 " clip-rule="nonzero"/></clipPath><clipPath id="628f6dfc9c"><path d="M 0.75 9 L 28 9 L 28 39.75 L 0.75 39.75 Z M 0.75 9 " clip-rule="nonzero"/></clipPath></defs><g clip-path="url(#04ee10fda0)"><path fill="#e61228" d="M 19.523438 6.398438 L 39.378906 6.398438 L 39.742188 32.101562 L 19.152344 32.101562 Z M 19.523438 6.398438 " fill-opacity="1" fill-rule="nonzero"/></g><path fill="#ffffff" d="M 27.230469 7.734375 C 27.230469 7.96875 27.144531 8.164062 26.96875 8.328125 C 26.796875 8.492188 26.585938 8.574219 26.339844 8.574219 C 26.09375 8.574219 25.882812 8.492188 25.707031 8.328125 C 25.535156 8.164062 25.445312 7.96875 25.445312 7.734375 C 25.445312 7.503906 25.535156 7.304688 25.707031 7.140625 C 25.882812 6.976562 26.09375 6.898438 26.339844 6.898438 C 26.585938 6.898438 26.796875 6.976562 26.96875 7.140625 C 27.144531 7.304688 27.230469 7.503906 27.230469 7.734375 Z M 27.230469 7.734375 " fill-opacity="1" fill-rule="nonzero"/><path fill="#ffffff" d="M 33.4375 7.734375 C 33.4375 7.96875 33.347656 8.164062 33.175781 8.328125 C 33 8.492188 32.789062 8.574219 32.542969 8.574219 C 32.296875 8.574219 32.085938 8.492188 31.914062 8.328125 C 31.738281 8.164062 31.652344 7.96875 31.652344 7.734375 C 31.652344 7.503906 31.738281 7.304688 31.914062 7.140625 C 32.085938 6.976562 32.296875 6.898438 32.542969 6.898438 C 32.789062 6.898438 33 6.976562 33.175781 7.140625 C 33.347656 7.304688 33.4375 7.503906 33.4375 7.734375 Z M 33.4375 7.734375 " fill-opacity="1" fill-rule="nonzero"/><g clip-path="url(#46e82f9bdd)"><path fill="#ffffff" d="M 32.074219 8.40625 C 31.960938 6.578125 30.808594 5.148438 29.4375 5.140625 C 28.074219 5.128906 26.921875 6.515625 26.78125 8.335938 C 26.359375 7.835938 26.046875 7.457031 26.007812 7.394531 C 25.976562 7.347656 25.957031 7.285156 25.957031 7.285156 C 25.949219 7.265625 25.949219 7.234375 25.949219 7.207031 C 25.949219 7.066406 26.039062 6.945312 26.140625 6.945312 C 26.207031 6.808594 27.332031 4.5 29.445312 4.488281 C 31.582031 4.480469 32.703125 6.808594 32.773438 6.945312 C 32.785156 6.945312 32.855469 6.945312 32.914062 7.027344 C 32.945312 7.078125 32.976562 7.136719 32.976562 7.207031 C 32.675781 7.605469 32.375 8.003906 32.074219 8.40625 Z M 32.074219 8.40625 " fill-opacity="1" fill-rule="nonzero"/></g><g clip-path="url(#628f6dfc9c)"><path fill="#e61228" d="M 0.757812 14.894531 L 19.882812 9.554688 L 27.191406 34.207031 L 7.363281 39.75 Z M 0.757812 14.894531 " fill-opacity="1" fill-rule="nonzero"/></g><path fill="#ffffff" d="M 8.546875 14.117188 C 8.609375 14.339844 8.578125 14.550781 8.457031 14.757812 C 8.332031 14.960938 8.152344 15.097656 7.914062 15.164062 C 7.675781 15.230469 7.453125 15.207031 7.242188 15.097656 C 7.027344 14.984375 6.890625 14.820312 6.828125 14.597656 C 6.765625 14.371094 6.796875 14.160156 6.917969 13.953125 C 7.042969 13.75 7.222656 13.613281 7.460938 13.546875 C 7.695312 13.480469 7.921875 13.503906 8.132812 13.613281 C 8.347656 13.726562 8.484375 13.890625 8.546875 14.117188 Z M 8.546875 14.117188 " fill-opacity="1" fill-rule="nonzero"/><path fill="#ffffff" d="M 14.519531 12.4375 C 14.582031 12.660156 14.550781 12.875 14.425781 13.078125 C 14.304688 13.285156 14.125 13.417969 13.886719 13.484375 C 13.648438 13.550781 13.425781 13.53125 13.210938 13.417969 C 13 13.308594 12.863281 13.140625 12.800781 12.917969 C 12.738281 12.695312 12.769531 12.480469 12.890625 12.277344 C 13.015625 12.074219 13.195312 11.9375 13.429688 11.871094 C 13.667969 11.804688 13.894531 11.828125 14.105469 11.9375 C 14.316406 12.046875 14.457031 12.214844 14.519531 12.4375 Z M 14.519531 12.4375 " fill-opacity="1" fill-rule="nonzero"/><path fill="#ffffff" d="M 13.390625 13.449219 C 12.789062 11.71875 11.285156 10.652344 9.972656 11.011719 C 8.65625 11.371094 7.917969 13.027344 8.277344 14.804688 C 7.734375 14.4375 7.335938 14.15625 7.273438 14.117188 C 7.226562 14.078125 7.203125 14.027344 7.203125 14.027344 C 7.195312 14.007812 7.183594 13.976562 7.175781 13.957031 C 7.132812 13.816406 7.183594 13.6875 7.292969 13.65625 C 7.316406 13.496094 7.777344 10.972656 9.8125 10.390625 C 11.867188 9.8125 13.578125 11.738281 13.679688 11.859375 C 13.691406 11.859375 13.761719 11.839844 13.828125 11.898438 C 13.878906 11.9375 13.910156 11.988281 13.929688 12.058594 C 13.75 12.527344 13.570312 12.988281 13.390625 13.449219 Z M 13.390625 13.449219 " fill-opacity="1" fill-rule="nonzero"/><g fill="#000000" fill-opacity="1"><g transform="translate(81.243828, 30.981617)"><g><path d="M 3.046875 -1.15625 C 3.046875 -0.769531 2.90625 -0.46875 2.625 -0.25 C 2.351562 -0.0390625 1.976562 0.0625 1.5 0.0625 C 0.988281 0.0625 0.59375 -0.00390625 0.3125 -0.140625 L 0.3125 -0.625 C 0.488281 -0.550781 0.679688 -0.492188 0.890625 -0.453125 C 1.109375 -0.410156 1.320312 -0.390625 1.53125 -0.390625 C 1.863281 -0.390625 2.113281 -0.453125 2.28125 -0.578125 C 2.457031 -0.703125 2.546875 -0.878906 2.546875 -1.109375 C 2.546875 -1.265625 2.515625 -1.390625 2.453125 -1.484375 C 2.390625 -1.578125 2.285156 -1.664062 2.140625 -1.75 C 2.003906 -1.832031 1.789062 -1.921875 1.5 -2.015625 C 1.09375 -2.160156 0.800781 -2.332031 0.625 -2.53125 C 0.457031 -2.726562 0.375 -2.988281 0.375 -3.3125 C 0.375 -3.644531 0.5 -3.910156 0.75 -4.109375 C 1 -4.304688 1.332031 -4.40625 1.75 -4.40625 C 2.175781 -4.40625 2.570312 -4.328125 2.9375 -4.171875 L 2.78125 -3.734375 C 2.425781 -3.878906 2.078125 -3.953125 1.734375 -3.953125 C 1.472656 -3.953125 1.265625 -3.894531 1.109375 -3.78125 C 0.960938 -3.664062 0.890625 -3.507812 0.890625 -3.3125 C 0.890625 -3.15625 0.914062 -3.03125 0.96875 -2.9375 C 1.019531 -2.84375 1.113281 -2.753906 1.25 -2.671875 C 1.382812 -2.585938 1.585938 -2.5 1.859375 -2.40625 C 2.304688 -2.238281 2.613281 -2.0625 2.78125 -1.875 C 2.957031 -1.695312 3.046875 -1.457031 3.046875 -1.15625 Z M 3.046875 -1.15625 "/></g></g></g><g fill="#000000" fill-opacity="1"><g transform="translate(88.478877, 30.981617)"><g><path d="M 3.90625 0 L 3.390625 0 L 3.390625 -2.046875 L 1.109375 -2.046875 L 1.109375 0 L 0.59375 0 L 0.59375 -4.34375 L 1.109375 -4.34375 L 1.109375 -2.5 L 3.390625 -2.5 L 3.390625 -4.34375 L 3.90625 -4.34375 Z M 3.90625 0 "/></g></g></g><g fill="#000000" fill-opacity="1"><g transform="translate(96.864908, 30.981617)"><g><path d="M 4.375 -2.1875 C 4.375 -1.488281 4.195312 -0.9375 3.84375 -0.53125 C 3.488281 -0.132812 3 0.0625 2.375 0.0625 C 1.738281 0.0625 1.242188 -0.128906 0.890625 -0.515625 C 0.546875 -0.910156 0.375 -1.46875 0.375 -2.1875 C 0.375 -2.894531 0.546875 -3.441406 0.890625 -3.828125 C 1.242188 -4.222656 1.742188 -4.421875 2.390625 -4.421875 C 3.015625 -4.421875 3.5 -4.222656 3.84375 -3.828125 C 4.195312 -3.429688 4.375 -2.882812 4.375 -2.1875 Z M 0.90625 -2.1875 C 0.90625 -1.59375 1.03125 -1.144531 1.28125 -0.84375 C 1.53125 -0.539062 1.894531 -0.390625 2.375 -0.390625 C 2.851562 -0.390625 3.21875 -0.539062 3.46875 -0.84375 C 3.71875 -1.144531 3.84375 -1.59375 3.84375 -2.1875 C 3.84375 -2.769531 3.71875 -3.210938 3.46875 -3.515625 C 3.226562 -3.816406 2.867188 -3.96875 2.390625 -3.96875 C 1.898438 -3.96875 1.53125 -3.8125 1.28125 -3.5 C 1.03125 -3.195312 0.90625 -2.757812 0.90625 -2.1875 Z M 0.90625 -2.1875 "/></g></g></g><g fill="#000000" fill-opacity="1"><g transform="translate(105.500765, 30.981617)"><g><path d="M 3.359375 -3.078125 C 3.359375 -2.640625 3.207031 -2.300781 2.90625 -2.0625 C 2.601562 -1.820312 2.171875 -1.703125 1.609375 -1.703125 L 1.109375 -1.703125 L 1.109375 0 L 0.59375 0 L 0.59375 -4.34375 L 1.71875 -4.34375 C 2.8125 -4.34375 3.359375 -3.921875 3.359375 -3.078125 Z M 1.109375 -2.140625 L 1.5625 -2.140625 C 2.007812 -2.140625 2.332031 -2.210938 2.53125 -2.359375 C 2.726562 -2.503906 2.828125 -2.738281 2.828125 -3.0625 C 2.828125 -3.34375 2.734375 -3.550781 2.546875 -3.6875 C 2.359375 -3.832031 2.066406 -3.90625 1.671875 -3.90625 L 1.109375 -3.90625 Z M 1.109375 -2.140625 "/></g></g></g><g fill="#ff5757" fill-opacity="1"><g transform="translate(44.976147, 23.010396)"><g><path d="M 10.53125 -1.046875 C 10.570312 -0.953125 10.59375 -0.847656 10.59375 -0.734375 C 10.59375 -0.503906 10.515625 -0.316406 10.359375 -0.171875 C 10.203125 -0.0234375 10.023438 0.046875 9.828125 0.046875 C 9.671875 0.046875 9.523438 0 9.390625 -0.09375 C 9.265625 -0.1875 9.160156 -0.316406 9.078125 -0.484375 L 8.03125 -2.984375 L 2.78125 -2.984375 L 1.75 -0.46875 C 1.6875 -0.300781 1.585938 -0.171875 1.453125 -0.078125 C 1.328125 0.00390625 1.1875 0.046875 1.03125 0.046875 C 0.789062 0.046875 0.609375 -0.015625 0.484375 -0.140625 C 0.367188 -0.265625 0.3125 -0.429688 0.3125 -0.640625 C 0.3125 -0.691406 0.320312 -0.785156 0.34375 -0.921875 L 4.671875 -11.40625 C 4.742188 -11.582031 4.847656 -11.71875 4.984375 -11.8125 C 5.128906 -11.914062 5.296875 -11.953125 5.484375 -11.921875 C 5.648438 -11.921875 5.800781 -11.875 5.9375 -11.78125 C 6.070312 -11.695312 6.171875 -11.570312 6.234375 -11.40625 Z M 3.421875 -4.53125 L 7.375 -4.53125 L 5.390625 -9.28125 Z M 3.421875 -4.53125 "/></g></g></g><g fill="#ff5757" fill-opacity="1"><g transform="translate(55.873409, 23.010396)"><g><path d="M 0.703125 -1.390625 C 0.597656 -1.546875 0.546875 -1.695312 0.546875 -1.84375 C 0.546875 -2.070312 0.664062 -2.265625 0.90625 -2.421875 C 1.007812 -2.503906 1.140625 -2.546875 1.296875 -2.546875 C 1.492188 -2.546875 1.675781 -2.460938 1.84375 -2.296875 C 2.1875 -1.910156 2.550781 -1.617188 2.9375 -1.421875 C 3.332031 -1.234375 3.800781 -1.140625 4.34375 -1.140625 C 4.769531 -1.148438 5.144531 -1.25 5.46875 -1.4375 C 5.800781 -1.625 5.96875 -1.925781 5.96875 -2.34375 C 5.96875 -2.726562 5.800781 -3.019531 5.46875 -3.21875 C 5.132812 -3.425781 4.644531 -3.613281 4 -3.78125 C 3.363281 -3.945312 2.835938 -4.125 2.421875 -4.3125 C 2.003906 -4.5 1.648438 -4.769531 1.359375 -5.125 C 1.078125 -5.488281 0.9375 -5.957031 0.9375 -6.53125 C 0.9375 -7.039062 1.078125 -7.488281 1.359375 -7.875 C 1.648438 -8.257812 2.035156 -8.554688 2.515625 -8.765625 C 2.992188 -8.984375 3.519531 -9.09375 4.09375 -9.09375 C 4.632812 -9.09375 5.171875 -8.988281 5.703125 -8.78125 C 6.242188 -8.582031 6.6875 -8.273438 7.03125 -7.859375 C 7.164062 -7.703125 7.234375 -7.535156 7.234375 -7.359375 C 7.234375 -7.179688 7.140625 -7.007812 6.953125 -6.84375 C 6.835938 -6.738281 6.695312 -6.6875 6.53125 -6.6875 C 6.332031 -6.6875 6.171875 -6.753906 6.046875 -6.890625 C 5.804688 -7.160156 5.515625 -7.367188 5.171875 -7.515625 C 4.828125 -7.660156 4.441406 -7.734375 4.015625 -7.734375 C 3.585938 -7.734375 3.222656 -7.644531 2.921875 -7.46875 C 2.628906 -7.300781 2.484375 -7.003906 2.484375 -6.578125 C 2.492188 -6.179688 2.664062 -5.882812 3 -5.6875 C 3.332031 -5.5 3.84375 -5.316406 4.53125 -5.140625 C 5.132812 -4.984375 5.632812 -4.8125 6.03125 -4.625 C 6.425781 -4.445312 6.757812 -4.179688 7.03125 -3.828125 C 7.300781 -3.472656 7.4375 -3.003906 7.4375 -2.421875 C 7.4375 -1.890625 7.28125 -1.425781 6.96875 -1.03125 C 6.664062 -0.644531 6.269531 -0.347656 5.78125 -0.140625 C 5.289062 0.0664062 4.765625 0.171875 4.203125 0.171875 C 3.492188 0.171875 2.835938 0.046875 2.234375 -0.203125 C 1.628906 -0.453125 1.117188 -0.847656 0.703125 -1.390625 Z M 0.703125 -1.390625 "/></g></g></g><g fill="#ff5757" fill-opacity="1"><g transform="translate(63.969972, 23.010396)"><g><path d="M 5.078125 -9.09375 C 5.972656 -9.09375 6.71875 -8.953125 7.3125 -8.671875 C 7.90625 -8.390625 8.203125 -8.023438 8.203125 -7.578125 C 8.203125 -7.390625 8.140625 -7.21875 8.015625 -7.0625 C 7.890625 -6.914062 7.726562 -6.84375 7.53125 -6.84375 C 7.382812 -6.84375 7.269531 -6.863281 7.1875 -6.90625 C 7.101562 -6.945312 6.988281 -7.019531 6.84375 -7.125 C 6.769531 -7.195312 6.660156 -7.273438 6.515625 -7.359375 C 6.378906 -7.429688 6.1875 -7.488281 5.9375 -7.53125 C 5.6875 -7.582031 5.460938 -7.609375 5.265625 -7.609375 C 4.671875 -7.609375 4.144531 -7.46875 3.6875 -7.1875 C 3.238281 -6.914062 2.890625 -6.539062 2.640625 -6.0625 C 2.398438 -5.582031 2.28125 -5.050781 2.28125 -4.46875 C 2.28125 -3.863281 2.398438 -3.320312 2.640625 -2.84375 C 2.878906 -2.375 3.21875 -2.003906 3.65625 -1.734375 C 4.101562 -1.460938 4.609375 -1.328125 5.171875 -1.328125 C 5.765625 -1.328125 6.238281 -1.414062 6.59375 -1.59375 C 6.675781 -1.632812 6.785156 -1.707031 6.921875 -1.8125 C 7.035156 -1.90625 7.132812 -1.972656 7.21875 -2.015625 C 7.300781 -2.066406 7.40625 -2.09375 7.53125 -2.09375 C 7.757812 -2.09375 7.9375 -2.019531 8.0625 -1.875 C 8.195312 -1.726562 8.265625 -1.546875 8.265625 -1.328125 C 8.265625 -1.085938 8.113281 -0.847656 7.8125 -0.609375 C 7.507812 -0.378906 7.109375 -0.191406 6.609375 -0.046875 C 6.109375 0.0976562 5.566406 0.171875 4.984375 0.171875 C 4.128906 0.171875 3.375 -0.0234375 2.71875 -0.421875 C 2.0625 -0.828125 1.550781 -1.382812 1.1875 -2.09375 C 0.832031 -2.800781 0.65625 -3.59375 0.65625 -4.46875 C 0.65625 -5.332031 0.84375 -6.117188 1.21875 -6.828125 C 1.59375 -7.535156 2.113281 -8.085938 2.78125 -8.484375 C 3.445312 -8.890625 4.210938 -9.09375 5.078125 -9.09375 Z M 5.078125 -9.09375 "/></g></g></g><g fill="#ff5757" fill-opacity="1"><g transform="translate(72.694573, 23.010396)"><g><path d="M 5.640625 -9.046875 C 7.628906 -9.046875 8.625 -7.8125 8.625 -5.34375 L 8.625 -0.8125 C 8.625 -0.582031 8.546875 -0.390625 8.390625 -0.234375 C 8.234375 -0.078125 8.039062 0 7.8125 0 C 7.582031 0 7.390625 -0.078125 7.234375 -0.234375 C 7.085938 -0.390625 7.015625 -0.582031 7.015625 -0.8125 L 7.015625 -5.34375 C 7.015625 -6.8125 6.390625 -7.546875 5.140625 -7.546875 C 4.472656 -7.546875 3.914062 -7.332031 3.46875 -6.90625 C 3.03125 -6.488281 2.8125 -5.96875 2.8125 -5.34375 L 2.8125 -0.8125 C 2.8125 -0.582031 2.734375 -0.390625 2.578125 -0.234375 C 2.429688 -0.078125 2.238281 0 2 0 C 1.757812 0 1.566406 -0.0703125 1.421875 -0.21875 C 1.273438 -0.375 1.203125 -0.570312 1.203125 -0.8125 L 1.203125 -11.75 C 1.203125 -11.96875 1.273438 -12.15625 1.421875 -12.3125 C 1.578125 -12.476562 1.769531 -12.5625 2 -12.5625 C 2.238281 -12.5625 2.429688 -12.476562 2.578125 -12.3125 C 2.734375 -12.15625 2.8125 -11.96875 2.8125 -11.75 L 2.8125 -7.453125 C 3.09375 -7.890625 3.488281 -8.265625 4 -8.578125 C 4.507812 -8.890625 5.054688 -9.046875 5.640625 -9.046875 Z M 5.640625 -9.046875 "/></g></g></g><g fill="#ff5757" fill-opacity="1"><g transform="translate(82.52248, 23.010396)"><g><path d="M 8.421875 -9.015625 C 8.648438 -9.015625 8.84375 -8.9375 9 -8.78125 C 9.15625 -8.625 9.234375 -8.421875 9.234375 -8.171875 L 9.234375 -0.8125 C 9.234375 -0.582031 9.15625 -0.390625 9 -0.234375 C 8.84375 -0.078125 8.648438 0 8.421875 0 C 8.179688 0 7.988281 -0.0703125 7.84375 -0.21875 C 7.695312 -0.375 7.625 -0.570312 7.625 -0.8125 L 7.625 -1.25 C 7.320312 -0.851562 6.914062 -0.515625 6.40625 -0.234375 C 5.90625 0.0351562 5.359375 0.171875 4.765625 0.171875 C 3.992188 0.171875 3.296875 -0.0234375 2.671875 -0.421875 C 2.046875 -0.816406 1.550781 -1.367188 1.1875 -2.078125 C 0.832031 -2.785156 0.65625 -3.582031 0.65625 -4.46875 C 0.65625 -5.34375 0.832031 -6.132812 1.1875 -6.84375 C 1.550781 -7.550781 2.039062 -8.101562 2.65625 -8.5 C 3.28125 -8.894531 3.96875 -9.09375 4.71875 -9.09375 C 5.3125 -9.09375 5.863281 -8.96875 6.375 -8.71875 C 6.894531 -8.46875 7.3125 -8.148438 7.625 -7.765625 L 7.625 -8.171875 C 7.625 -8.410156 7.695312 -8.609375 7.84375 -8.765625 C 7.988281 -8.929688 8.179688 -9.015625 8.421875 -9.015625 Z M 4.953125 -1.328125 C 5.484375 -1.328125 5.953125 -1.460938 6.359375 -1.734375 C 6.773438 -2.003906 7.097656 -2.375 7.328125 -2.84375 C 7.566406 -3.320312 7.6875 -3.863281 7.6875 -4.46875 C 7.6875 -5.050781 7.566406 -5.578125 7.328125 -6.046875 C 7.097656 -6.523438 6.773438 -6.90625 6.359375 -7.1875 C 5.953125 -7.46875 5.484375 -7.609375 4.953125 -7.609375 C 4.421875 -7.609375 3.945312 -7.46875 3.53125 -7.1875 C 3.125 -6.914062 2.800781 -6.539062 2.5625 -6.0625 C 2.332031 -5.59375 2.21875 -5.0625 2.21875 -4.46875 C 2.21875 -3.863281 2.332031 -3.320312 2.5625 -2.84375 C 2.800781 -2.375 3.125 -2.003906 3.53125 -1.734375 C 3.945312 -1.460938 4.421875 -1.328125 4.953125 -1.328125 Z M 4.953125 -1.328125 "/></g></g></g><g fill="#ff5757" fill-opacity="1"><g transform="translate(92.944473, 23.010396)"><g><path d="M 8.421875 -12.5625 C 8.648438 -12.5625 8.84375 -12.484375 9 -12.328125 C 9.15625 -12.171875 9.234375 -11.976562 9.234375 -11.75 L 9.234375 -0.8125 C 9.234375 -0.582031 9.15625 -0.390625 9 -0.234375 C 8.84375 -0.078125 8.648438 0 8.421875 0 C 8.179688 0 7.988281 -0.0703125 7.84375 -0.21875 C 7.695312 -0.375 7.625 -0.570312 7.625 -0.8125 L 7.625 -1.296875 C 7.332031 -0.878906 6.929688 -0.53125 6.421875 -0.25 C 5.910156 0.03125 5.359375 0.171875 4.765625 0.171875 C 3.992188 0.171875 3.296875 -0.0234375 2.671875 -0.421875 C 2.054688 -0.816406 1.566406 -1.367188 1.203125 -2.078125 C 0.835938 -2.785156 0.65625 -3.582031 0.65625 -4.46875 C 0.65625 -5.34375 0.832031 -6.132812 1.1875 -6.84375 C 1.550781 -7.550781 2.039062 -8.101562 2.65625 -8.5 C 3.28125 -8.894531 3.96875 -9.09375 4.71875 -9.09375 C 5.3125 -9.09375 5.863281 -8.96875 6.375 -8.71875 C 6.882812 -8.46875 7.300781 -8.144531 7.625 -7.75 L 7.625 -11.75 C 7.625 -11.976562 7.695312 -12.171875 7.84375 -12.328125 C 7.988281 -12.484375 8.179688 -12.5625 8.421875 -12.5625 Z M 4.953125 -1.328125 C 5.484375 -1.328125 5.953125 -1.460938 6.359375 -1.734375 C 6.773438 -2.003906 7.097656 -2.375 7.328125 -2.84375 C 7.566406 -3.320312 7.6875 -3.863281 7.6875 -4.46875 C 7.6875 -5.050781 7.566406 -5.582031 7.328125 -6.0625 C 7.097656 -6.539062 6.773438 -6.914062 6.359375 -7.1875 C 5.953125 -7.46875 5.484375 -7.609375 4.953125 -7.609375 C 4.421875 -7.609375 3.945312 -7.46875 3.53125 -7.1875 C 3.125 -6.914062 2.800781 -6.539062 2.5625 -6.0625 C 2.332031 -5.582031 2.21875 -5.050781 2.21875 -4.46875 C 2.21875 -3.863281 2.332031 -3.320312 2.5625 -2.84375 C 2.800781 -2.375 3.125 -2.003906 3.53125 -1.734375 C 3.945312 -1.460938 4.421875 -1.328125 4.953125 -1.328125 Z M 4.953125 -1.328125 "/></g></g></g><g fill="#ff5757" fill-opacity="1"><g transform="translate(103.366467, 23.010396)"><g><path d="M 2.734375 -0.8125 C 2.734375 -0.582031 2.65625 -0.390625 2.5 -0.234375 C 2.351562 -0.078125 2.160156 0 1.921875 0 C 1.691406 0 1.5 -0.078125 1.34375 -0.234375 C 1.195312 -0.390625 1.125 -0.582031 1.125 -0.8125 L 1.125 -8.15625 C 1.125 -8.382812 1.195312 -8.578125 1.34375 -8.734375 C 1.5 -8.890625 1.691406 -8.96875 1.921875 -8.96875 C 2.160156 -8.96875 2.351562 -8.890625 2.5 -8.734375 C 2.65625 -8.578125 2.734375 -8.382812 2.734375 -8.15625 Z M 1.921875 -10.09375 C 1.597656 -10.09375 1.363281 -10.148438 1.21875 -10.265625 C 1.070312 -10.390625 1 -10.582031 1 -10.84375 L 1 -11.109375 C 1 -11.378906 1.078125 -11.570312 1.234375 -11.6875 C 1.390625 -11.800781 1.625 -11.859375 1.9375 -11.859375 C 2.257812 -11.859375 2.488281 -11.796875 2.625 -11.671875 C 2.769531 -11.554688 2.84375 -11.367188 2.84375 -11.109375 L 2.84375 -10.84375 C 2.84375 -10.570312 2.765625 -10.378906 2.609375 -10.265625 C 2.460938 -10.148438 2.234375 -10.09375 1.921875 -10.09375 Z M 1.921875 -10.09375 "/></g></g></g><g fill="#ff5757" fill-opacity="1"><g transform="translate(107.219547, 23.010396)"><g><path d="M 5.734375 -9.09375 C 7.773438 -9.09375 8.796875 -7.875 8.796875 -5.4375 L 8.796875 -0.8125 C 8.796875 -0.582031 8.71875 -0.390625 8.5625 -0.234375 C 8.40625 -0.078125 8.207031 0 7.96875 0 C 7.75 0 7.5625 -0.078125 7.40625 -0.234375 C 7.25 -0.390625 7.171875 -0.582031 7.171875 -0.8125 L 7.171875 -5.40625 C 7.171875 -6.082031 7.019531 -6.617188 6.71875 -7.015625 C 6.414062 -7.410156 5.914062 -7.609375 5.21875 -7.609375 C 4.769531 -7.609375 4.359375 -7.507812 3.984375 -7.3125 C 3.617188 -7.113281 3.332031 -6.84375 3.125 -6.5 C 2.914062 -6.164062 2.8125 -5.800781 2.8125 -5.40625 L 2.8125 -0.8125 C 2.8125 -0.582031 2.734375 -0.390625 2.578125 -0.234375 C 2.429688 -0.078125 2.238281 0 2 0 C 1.757812 0 1.566406 -0.0703125 1.421875 -0.21875 C 1.273438 -0.375 1.203125 -0.570312 1.203125 -0.8125 L 1.203125 -8.078125 C 1.203125 -8.304688 1.273438 -8.5 1.421875 -8.65625 C 1.578125 -8.8125 1.769531 -8.890625 2 -8.890625 C 2.238281 -8.890625 2.429688 -8.8125 2.578125 -8.65625 C 2.734375 -8.5 2.8125 -8.304688 2.8125 -8.078125 L 2.8125 -7.484375 C 3.113281 -7.929688 3.523438 -8.3125 4.046875 -8.625 C 4.578125 -8.9375 5.140625 -9.09375 5.734375 -9.09375 Z M 5.734375 -9.09375 "/></g></g></g><g fill="#ff5757" fill-opacity="1"><g transform="translate(117.217187, 23.010396)"><g><path d="M 5.640625 -9.046875 C 7.628906 -9.046875 8.625 -7.8125 8.625 -5.34375 L 8.625 -0.8125 C 8.625 -0.582031 8.546875 -0.390625 8.390625 -0.234375 C 8.234375 -0.078125 8.039062 0 7.8125 0 C 7.582031 0 7.390625 -0.078125 7.234375 -0.234375 C 7.085938 -0.390625 7.015625 -0.582031 7.015625 -0.8125 L 7.015625 -5.34375 C 7.015625 -6.8125 6.390625 -7.546875 5.140625 -7.546875 C 4.472656 -7.546875 3.914062 -7.332031 3.46875 -6.90625 C 3.03125 -6.488281 2.8125 -5.96875 2.8125 -5.34375 L 2.8125 -0.8125 C 2.8125 -0.582031 2.734375 -0.390625 2.578125 -0.234375 C 2.429688 -0.078125 2.238281 0 2 0 C 1.757812 0 1.566406 -0.0703125 1.421875 -0.21875 C 1.273438 -0.375 1.203125 -0.570312 1.203125 -0.8125 L 1.203125 -11.75 C 1.203125 -11.96875 1.273438 -12.15625 1.421875 -12.3125 C 1.578125 -12.476562 1.769531 -12.5625 2 -12.5625 C 2.238281 -12.5625 2.429688 -12.476562 2.578125 -12.3125 C 2.734375 -12.15625 2.8125 -11.96875 2.8125 -11.75 L 2.8125 -7.453125 C 3.09375 -7.890625 3.488281 -8.265625 4 -8.578125 C 4.507812 -8.890625 5.054688 -9.046875 5.640625 -9.046875 Z M 5.640625 -9.046875 "/></g></g></g><g fill="#ff5757" fill-opacity="1"><g transform="translate(127.045094, 23.010396)"><g><path d="M 9.625 -4.453125 C 9.625 -3.566406 9.425781 -2.769531 9.03125 -2.0625 C 8.632812 -1.363281 8.09375 -0.816406 7.40625 -0.421875 C 6.71875 -0.0234375 5.960938 0.171875 5.140625 0.171875 C 4.316406 0.171875 3.5625 -0.0234375 2.875 -0.421875 C 2.1875 -0.816406 1.644531 -1.363281 1.25 -2.0625 C 0.851562 -2.769531 0.65625 -3.566406 0.65625 -4.453125 C 0.65625 -5.328125 0.851562 -6.117188 1.25 -6.828125 C 1.644531 -7.546875 2.1875 -8.101562 2.875 -8.5 C 3.5625 -8.894531 4.316406 -9.09375 5.140625 -9.09375 C 5.960938 -9.09375 6.71875 -8.894531 7.40625 -8.5 C 8.09375 -8.101562 8.632812 -7.546875 9.03125 -6.828125 C 9.425781 -6.117188 9.625 -5.328125 9.625 -4.453125 Z M 8.015625 -4.453125 C 8.015625 -5.054688 7.882812 -5.597656 7.625 -6.078125 C 7.375 -6.554688 7.03125 -6.929688 6.59375 -7.203125 C 6.15625 -7.472656 5.671875 -7.609375 5.140625 -7.609375 C 4.609375 -7.609375 4.125 -7.472656 3.6875 -7.203125 C 3.25 -6.929688 2.90625 -6.554688 2.65625 -6.078125 C 2.40625 -5.597656 2.28125 -5.054688 2.28125 -4.453125 C 2.28125 -3.847656 2.40625 -3.304688 2.65625 -2.828125 C 2.90625 -2.359375 3.25 -1.988281 3.6875 -1.71875 C 4.125 -1.457031 4.609375 -1.328125 5.140625 -1.328125 C 5.671875 -1.328125 6.15625 -1.457031 6.59375 -1.71875 C 7.03125 -1.988281 7.375 -2.359375 7.625 -2.828125 C 7.882812 -3.304688 8.015625 -3.847656 8.015625 -4.453125 Z M 8.015625 -4.453125 "/></g></g></g><g fill="#ff5757" fill-opacity="1"><g transform="translate(137.331295, 23.010396)"><g><path d="M 0.703125 -1.390625 C 0.597656 -1.546875 0.546875 -1.695312 0.546875 -1.84375 C 0.546875 -2.070312 0.664062 -2.265625 0.90625 -2.421875 C 1.007812 -2.503906 1.140625 -2.546875 1.296875 -2.546875 C 1.492188 -2.546875 1.675781 -2.460938 1.84375 -2.296875 C 2.1875 -1.910156 2.550781 -1.617188 2.9375 -1.421875 C 3.332031 -1.234375 3.800781 -1.140625 4.34375 -1.140625 C 4.769531 -1.148438 5.144531 -1.25 5.46875 -1.4375 C 5.800781 -1.625 5.96875 -1.925781 5.96875 -2.34375 C 5.96875 -2.726562 5.800781 -3.019531 5.46875 -3.21875 C 5.132812 -3.425781 4.644531 -3.613281 4 -3.78125 C 3.363281 -3.945312 2.835938 -4.125 2.421875 -4.3125 C 2.003906 -4.5 1.648438 -4.769531 1.359375 -5.125 C 1.078125 -5.488281 0.9375 -5.957031 0.9375 -6.53125 C 0.9375 -7.039062 1.078125 -7.488281 1.359375 -7.875 C 1.648438 -8.257812 2.035156 -8.554688 2.515625 -8.765625 C 2.992188 -8.984375 3.519531 -9.09375 4.09375 -9.09375 C 4.632812 -9.09375 5.171875 -8.988281 5.703125 -8.78125 C 6.242188 -8.582031 6.6875 -8.273438 7.03125 -7.859375 C 7.164062 -7.703125 7.234375 -7.535156 7.234375 -7.359375 C 7.234375 -7.179688 7.140625 -7.007812 6.953125 -6.84375 C 6.835938 -6.738281 6.695312 -6.6875 6.53125 -6.6875 C 6.332031 -6.6875 6.171875 -6.753906 6.046875 -6.890625 C 5.804688 -7.160156 5.515625 -7.367188 5.171875 -7.515625 C 4.828125 -7.660156 4.441406 -7.734375 4.015625 -7.734375 C 3.585938 -7.734375 3.222656 -7.644531 2.921875 -7.46875 C 2.628906 -7.300781 2.484375 -7.003906 2.484375 -6.578125 C 2.492188 -6.179688 2.664062 -5.882812 3 -5.6875 C 3.332031 -5.5 3.84375 -5.316406 4.53125 -5.140625 C 5.132812 -4.984375 5.632812 -4.8125 6.03125 -4.625 C 6.425781 -4.445312 6.757812 -4.179688 7.03125 -3.828125 C 7.300781 -3.472656 7.4375 -3.003906 7.4375 -2.421875 C 7.4375 -1.890625 7.28125 -1.425781 6.96875 -1.03125 C 6.664062 -0.644531 6.269531 -0.347656 5.78125 -0.140625 C 5.289062 0.0664062 4.765625 0.171875 4.203125 0.171875 C 3.492188 0.171875 2.835938 0.046875 2.234375 -0.203125 C 1.628906 -0.453125 1.117188 -0.847656 0.703125 -1.390625 Z M 0.703125 -1.390625 "/></g></g></g></svg>